<?xml version="1.0" encoding="UTF-8" standalone="no"?>
<!-- Created with Inkscape (http://www.inkscape.org/) -->

<svg
   version="1.1"
   id="svg2"
   width="321.73572"
   height="55.898312"
   viewBox="0 0 321.73572 55.898312"
   sodipodi:docname="lamoam_logo.svg"
   inkscape:version="1.2 (dc2aedaf03, 2022-05-15)"
   xmlns:inkscape="http://www.inkscape.org/namespaces/inkscape"
   xmlns:sodipodi="http://sodipodi.sourceforge.net/DTD/sodipodi-0.dtd"
   xmlns:xlink="http://www.w3.org/1999/xlink"
   xmlns="http://www.w3.org/2000/svg"
   xmlns:svg="http://www.w3.org/2000/svg">
  <defs
     id="defs6">
    <linearGradient
       inkscape:collect="always"
       id="linearGradient5440">
      <stop
         style="stop-color:#68cbe8;stop-opacity:1;"
         offset="0"
         id="stop5436" />
      <stop
         style="stop-color:#ec0007;stop-opacity:0.58959538;"
         offset="1"
         id="stop5438" />
    </linearGradient>
    <linearGradient
       inkscape:collect="always"
       xlink:href="#linearGradient5440"
       id="linearGradient5442"
       x1="20.907015"
       y1="83.337685"
       x2="342.64273"
       y2="83.337685"
       gradientUnits="userSpaceOnUse"
       gradientTransform="translate(0,-10)" />
  </defs>
  <sodipodi:namedview
     id="namedview4"
     pagecolor="#ffffff"
     bordercolor="#000000"
     borderopacity="0.25"
     inkscape:showpageshadow="2"
     inkscape:pageopacity="0.0"
     inkscape:pagecheckerboard="0"
     inkscape:deskcolor="#d1d1d1"
     showgrid="false"
     inkscape:zoom="1.2175743"
     inkscape:cx="169.18885"
     inkscape:cy="51.742221"
     inkscape:window-width="1366"
     inkscape:window-height="697"
     inkscape:window-x="-8"
     inkscape:window-y="-8"
     inkscape:window-maximized="1"
     inkscape:current-layer="g8" />
  <g
     inkscape:groupmode="layer"
     inkscape:label="Image"
     id="g8"
     transform="translate(-20.907015,-21.795)">
    <path
       style="fill:#00357c"
       d="m 192.08075,58.939969 c -12.72407,-4.511266 -17.23434,-19.082456 -9.25327,-29.894251 4.81218,-6.518953 16.25791,-9.279709 23.27922,-5.615037 9.47175,4.943652 13.57086,17.290287 8.7165,26.254346 -1.74414,3.220713 -6.47999,7.260742 -10.46033,8.923426 -4.23323,1.768321 -7.94687,1.868559 -12.28212,0.331516 z m 11.57955,-8.484531 c 6.80941,-4.022415 7.46596,-12.851761 1.35467,-18.217548 -9.5113,-8.351036 -22.79205,2.595816 -16.92165,13.94792 2.87029,5.550527 10.06023,7.522546 15.56698,4.269628 z M 29.58075,40.661501 v -18.5 h 3.5 3.5 v 15 15 h 7 7 v 3.5 3.5 h -10.5 -10.5 z m 35.78041,18.149266 c -9.96e-4,-0.4125 3.472445,-9.157631 7.452581,-18.945633 l 7.236609,-17.796368 3.443821,0.296368 3.443821,0.296367 7.299004,18 c 4.014452,9.9 7.309074,18.138374 7.321384,18.307498 0.0123,0.169124 -1.875695,0.169124 -4.195552,0 -3.800942,-0.277099 -4.309539,-0.62879 -5.14466,-3.557498 l -0.926739,-3.25 h -7.790611 -7.790612 l -1.265616,3.5 c -1.261078,3.48745 -1.267654,3.463703 -5.064728,3.5 -2.089417,0.01997 -4.017707,0.06177 -4.018702,-0.350734 z M 86.286278,38.661501 c -1.162319,-3.575 -2.409104,-6.5 -2.770635,-6.5 -0.672361,0 -4.934893,10.441903 -4.934893,12.088984 0,0.501059 2.209238,0.911016 4.909417,0.911016 h 4.909417 z m 28.682062,18.75 c 0.2873,-0.9625 1.94563,-9.2875 3.68517,-18.5 l 3.16281,-16.75 h 4.74703 4.74703 l 3.8466,13 c 2.11563,7.15 4.08896,12.999376 4.38518,12.998614 0.29623,-7.62e-4 1.35277,-2.813262 2.34789,-6.25 0.99511,-3.436738 2.70167,-9.286114 3.79234,-12.998614 l 1.98305,-6.75 h 4.75729 4.75729 l 3.51725,18.5 3.51724,18.5 h -4.31688 c -2.37428,0 -4.31986,-0.3375 -4.32351,-0.75 -0.0181,-2.047301 -3.9949,-23.584862 -4.43633,-24.026291 -0.63517,-0.635176 -0.87819,0.06843 -4.06743,11.776291 -1.4233,5.225 -2.82105,10.2875 -3.1061,11.25 -0.37848,1.277956 -1.56764,1.75 -4.40855,1.75 h -3.89027 l -1.97592,-6.75 c -1.08675,-3.7125 -2.73417,-9.411212 -3.66092,-12.663805 -2.08461,-7.316285 -2.60928,-6.458493 -4.9934,8.163805 l -1.83428,11.25 h -4.37748 c -3.70134,0 -4.29678,-0.270296 -3.8551,-1.75 z m 123.76721,-15.5 c 3.84599,-9.4875 7.23266,-17.8125 7.52594,-18.5 0.44234,-1.036921 7.31926,-1.918901 7.31926,-0.938711 0,0.171209 3.35242,8.496209 7.44981,18.5 l 7.44982,18.188711 h -4.30516 c -3.99984,0 -4.37104,-0.230481 -5.23425,-3.25 l -0.92911,-3.25 -7.68479,-0.29151 -7.68479,-0.291511 -1.47974,3.541511 c -1.34212,3.212143 -1.84895,3.54151 -5.44971,3.54151 h -3.96998 z m 15.7677,2 c -0.17495,-2.821647 -3.66146,-11.221936 -4.50882,-10.863399 -0.50252,0.212631 -1.90559,3.025131 -3.11791,6.25 l -2.20424,5.863399 h 4.95424 c 3.33805,0 4.92895,-0.407777 4.87673,-1.25 z m 27.0775,14.476812 c 0,-0.488501 1.575,-8.690566 3.5,-18.226812 1.925,-9.536246 3.5,-17.487437 3.5,-17.669314 0,-0.181877 2.1375,-0.330062 4.75,-0.3293 l 4.75,0.0014 1.81684,6.248614 c 4.62075,15.891967 5.95531,19.809848 6.5467,19.219134 0.35005,-0.349655 2.23697,-6.111063 4.19314,-12.803128 l 3.55669,-12.167406 h 4.83648 4.83647 l 3.35105,17 c 1.84307,9.35 3.35365,17.5625 3.35684,18.25 0.004,0.786855 -1.43611,1.25 -3.8858,1.25 -4.45299,0 -4.00255,0.991622 -6.7001,-14.75 -0.96606,-5.6375 -2.03434,-10.25 -2.37396,-10.25 -0.33962,0 -2.14313,5.646875 -4.00779,12.548611 l -3.3903,12.548612 -4.05254,-0.298612 -4.05254,-0.298611 -3.4467,-12.25 c -1.89568,-6.7375 -3.72945,-12.25 -4.07503,-12.25 -0.34558,0 -1.50159,5.5125 -2.56889,12.25 l -1.94056,12.25 -4.25,0.307498 c -2.3375,0.169124 -4.25,-0.09218 -4.25,-0.580686 z"
       id="path4907"
       sodipodi:nodetypes="sssssssssscccccccccccccsscccsssscccssssssscssscccsssscccccsssssscssscsssssscsscccsscsssscsssssscssscccscsssscccssscss" />
    <rect
       style="fill:url(#linearGradient5442);fill-opacity:1"
       id="rect5411"
       width="321.73572"
       height="8.711256"
       x="20.907015"
       y="68.982056" />
  </g>
</svg>
