<?xml version="1.0" encoding="UTF-8"?>
<svg xmlns="http://www.w3.org/2000/svg" xmlns:xlink="http://www.w3.org/1999/xlink" width="375pt" height="374.999991pt" viewBox="0 0 375 374.999991" version="1.2">
<defs>
<clipPath id="clip1">
  <path d="M 321 160 L 345.945312 160 L 345.945312 186 L 321 186 Z M 321 160 "/>
</clipPath>
<clipPath id="clip2">
  <path d="M 220 9.746094 L 246 9.746094 L 246 35 L 220 35 Z M 220 9.746094 "/>
</clipPath>
<clipPath id="clip3">
  <path d="M 80 332 L 123 332 L 123 365.246094 L 80 365.246094 Z M 80 332 "/>
</clipPath>
<clipPath id="clip4">
  <path d="M 130 332 L 140 332 L 140 365.246094 L 130 365.246094 Z M 130 332 "/>
</clipPath>
<clipPath id="clip5">
  <path d="M 148 332 L 185 332 L 185 365.246094 L 148 365.246094 Z M 148 332 "/>
</clipPath>
<clipPath id="clip6">
  <path d="M 190 333 L 233 333 L 233 365.246094 L 190 365.246094 Z M 190 333 "/>
</clipPath>
<clipPath id="clip7">
  <path d="M 240 332 L 293 332 L 293 365.246094 L 240 365.246094 Z M 240 332 "/>
</clipPath>
<clipPath id="clip8">
  <path d="M 300 332 L 338 332 L 338 365.246094 L 300 365.246094 Z M 300 332 "/>
</clipPath>
</defs>
<g id="surface1">
<rect x="0" y="0" width="375" height="374.999991" style="fill:rgb(100%,100%,100%);fill-opacity:1;stroke:none;"/>
<rect x="0" y="0" width="375" height="374.999991" style="fill:rgb(100%,100%,100%);fill-opacity:1;stroke:none;"/>
<path style=" stroke:none;fill-rule:evenodd;fill:rgb(12.159729%,10.198975%,9.01947%);fill-opacity:1;" d="M 174.230469 126.753906 L 174.230469 12.832031 C 187.402344 13.136719 200.523438 15.011719 213.292969 18.511719 C 211.972656 26.316406 215.316406 34.125 221.804688 38.636719 L 184.109375 128.832031 C 180.867188 127.769531 177.574219 127.109375 174.230469 126.753906 Z M 174.230469 126.753906 "/>
<path style=" stroke:none;fill-rule:evenodd;fill:rgb(12.159729%,10.198975%,9.01947%);fill-opacity:1;" d="M 164.292969 126.753906 L 164.292969 12.984375 C 146.359375 13.894531 128.828125 18.308594 112.566406 25.964844 L 154.71875 128.730469 C 157.808594 127.71875 161 127.058594 164.292969 126.753906 Z M 164.292969 126.753906 "/>
<path style=" stroke:none;fill-rule:evenodd;fill:rgb(12.159729%,10.198975%,9.01947%);fill-opacity:1;" d="M 147.101562 131.59375 L 105.152344 29.382812 C 89.042969 37.644531 74.503906 48.800781 62.34375 62.234375 L 137.832031 137.777344 C 140.667969 135.394531 143.757812 133.316406 147.101562 131.59375 Z M 147.101562 131.59375 "/>
<path style=" stroke:none;fill-rule:evenodd;fill:rgb(12.159729%,10.198975%,9.01947%);fill-opacity:1;" d="M 57.117188 68.421875 C 46.023438 81.605469 37.613281 96.863281 32.394531 113.242188 L 126.21875 152.53125 C 127.839844 149.339844 129.867188 146.296875 132.199219 143.558594 Z M 57.117188 68.421875 "/>
<path style=" stroke:none;fill-rule:evenodd;fill:rgb(12.159729%,10.198975%,9.01947%);fill-opacity:1;" d="M 122.925781 160.085938 L 30.417969 121.351562 C 28.289062 137.878906 28.695312 154.609375 31.632812 170.988281 L 120.75 170.988281 C 121.050781 167.285156 121.8125 163.636719 122.925781 160.085938 Z M 122.925781 160.085938 "/>
<path style=" stroke:none;fill-rule:evenodd;fill:rgb(12.159729%,10.198975%,9.01947%);fill-opacity:1;" d="M 120.777344 179.171875 L 33.941406 179.171875 C 39.210938 192.859375 46.050781 205.839844 54.257812 217.957031 L 122.855469 189.769531 C 121.792969 186.320312 121.082031 182.769531 120.777344 179.171875 Z M 120.777344 179.171875 "/>
<path style=" stroke:none;fill-rule:evenodd;fill:rgb(12.159729%,10.198975%,9.01947%);fill-opacity:1;" d="M 132.328125 206.050781 C 129.894531 203.214844 127.820312 200.121094 126.148438 196.773438 L 59.933594 223.949219 C 69.152344 233.125 79.335938 241.1875 90.277344 248.132812 Z M 132.328125 206.050781 "/>
<path style=" stroke:none;fill-rule:evenodd;fill:rgb(12.159729%,10.198975%,9.01947%);fill-opacity:1;" d="M 184.976562 266.804688 C 184.011719 258.945312 187.609375 251.289062 194.296875 247.03125 L 183.808594 221.070312 C 167.953125 225.988281 150.675781 222.492188 138.011719 211.742188 L 97.480469 252.304688 C 124.28125 266.550781 155.035156 271.671875 184.976562 266.804688 Z M 184.976562 266.804688 "/>
<path style=" stroke:none;fill-rule:evenodd;fill:rgb(12.159729%,10.198975%,9.01947%);fill-opacity:1;" d="M 190.886719 218.148438 L 201.421875 244.308594 C 209.578125 242.941406 217.683594 246.640625 222.042969 253.636719 C 226.550781 251.507812 231.007812 249.277344 235.417969 246.945312 L 200.410156 211.863281 C 197.472656 214.347656 194.28125 216.476562 190.886719 218.148438 Z M 190.886719 218.148438 "/>
<path style=" stroke:none;fill-rule:evenodd;fill:rgb(12.159729%,10.198975%,9.01947%);fill-opacity:1;" d="M 316.863281 189.386719 C 313.925781 186.496094 311.898438 182.796875 311.085938 178.6875 L 217.414062 178.6875 C 216.601562 188.777344 212.601562 198.359375 206.113281 206.066406 L 242.84375 242.824219 C 269.542969 228.019531 294.367188 210.070312 316.863281 189.386719 Z M 316.863281 189.386719 "/>
<path style=" stroke:none;fill-rule:evenodd;fill:rgb(12.159729%,10.198975%,9.01947%);fill-opacity:1;" d="M 263.945312 47.992188 C 268.355469 52.402344 272.457031 57.066406 276.308594 61.984375 L 200.316406 138.035156 C 197.527344 135.703125 194.539062 133.726562 191.347656 132.050781 L 229.039062 41.859375 C 236.03125 43.277344 243.277344 40.84375 248.089844 35.519531 C 253.664062 39.273438 258.980469 43.480469 263.945312 47.992188 Z M 263.945312 47.992188 "/>
<path style=" stroke:none;fill-rule:nonzero;fill:rgb(85.488892%,14.509583%,11.369324%);fill-opacity:1;" d="M 216.914062 264.480469 C 216.914062 265.285156 216.835938 266.082031 216.679688 266.875 C 216.523438 267.664062 216.292969 268.429688 215.984375 269.175781 C 215.679688 269.917969 215.304688 270.625 214.855469 271.296875 C 214.410156 271.964844 213.90625 272.585938 213.339844 273.15625 C 212.773438 273.726562 212.15625 274.234375 211.488281 274.679688 C 210.824219 275.128906 210.117188 275.507812 209.378906 275.816406 C 208.636719 276.125 207.875 276.355469 207.085938 276.511719 C 206.300781 276.671875 205.507812 276.75 204.707031 276.75 C 203.902344 276.75 203.109375 276.671875 202.324219 276.511719 C 201.539062 276.355469 200.773438 276.125 200.035156 275.816406 C 199.292969 275.507812 198.589844 275.128906 197.921875 274.679688 C 197.257812 274.234375 196.640625 273.726562 196.074219 273.15625 C 195.503906 272.585938 195 271.964844 194.554688 271.296875 C 194.109375 270.625 193.734375 269.917969 193.425781 269.175781 C 193.117188 268.429688 192.886719 267.664062 192.730469 266.875 C 192.574219 266.082031 192.496094 265.285156 192.496094 264.480469 C 192.496094 263.675781 192.574219 262.875 192.730469 262.085938 C 192.886719 261.296875 193.117188 260.527344 193.425781 259.785156 C 193.734375 259.039062 194.109375 258.332031 194.554688 257.664062 C 195 256.992188 195.503906 256.375 196.074219 255.804688 C 196.640625 255.234375 197.257812 254.726562 197.921875 254.277344 C 198.589844 253.832031 199.292969 253.453125 200.035156 253.144531 C 200.773438 252.835938 201.539062 252.601562 202.324219 252.445312 C 203.109375 252.289062 203.902344 252.210938 204.707031 252.210938 C 205.507812 252.210938 206.300781 252.289062 207.085938 252.445312 C 207.875 252.601562 208.636719 252.835938 209.378906 253.144531 C 210.117188 253.453125 210.824219 253.832031 211.488281 254.277344 C 212.15625 254.726562 212.773438 255.234375 213.339844 255.804688 C 213.90625 256.375 214.410156 256.992188 214.855469 257.664062 C 215.304688 258.332031 215.679688 259.039062 215.984375 259.785156 C 216.292969 260.527344 216.523438 261.296875 216.679688 262.085938 C 216.835938 262.875 216.914062 263.675781 216.914062 264.480469 Z M 216.914062 264.480469 "/>
<g clip-path="url(#clip1)" clip-rule="nonzero">
<path style=" stroke:none;fill-rule:nonzero;fill:rgb(85.488892%,14.509583%,11.369324%);fill-opacity:1;" d="M 345.679688 173.085938 C 345.679688 173.890625 345.601562 174.6875 345.445312 175.476562 C 345.289062 176.269531 345.054688 177.035156 344.75 177.78125 C 344.441406 178.523438 344.0625 179.230469 343.613281 179.902344 C 343.167969 180.570312 342.660156 181.191406 342.089844 181.761719 C 341.519531 182.328125 340.902344 182.839844 340.234375 183.285156 C 339.5625 183.734375 338.855469 184.113281 338.113281 184.417969 C 337.367188 184.726562 336.601562 184.960938 335.8125 185.117188 C 335.023438 185.273438 334.226562 185.355469 333.421875 185.355469 C 332.617188 185.355469 331.820312 185.273438 331.027344 185.117188 C 330.238281 184.960938 329.472656 184.726562 328.730469 184.417969 C 327.984375 184.113281 327.277344 183.734375 326.609375 183.285156 C 325.941406 182.839844 325.320312 182.328125 324.75 181.761719 C 324.183594 181.191406 323.675781 180.570312 323.226562 179.902344 C 322.78125 179.230469 322.402344 178.523438 322.09375 177.78125 C 321.785156 177.035156 321.554688 176.269531 321.394531 175.476562 C 321.238281 174.6875 321.160156 173.890625 321.160156 173.085938 C 321.160156 172.277344 321.238281 171.480469 321.394531 170.691406 C 321.554688 169.902344 321.785156 169.132812 322.09375 168.390625 C 322.402344 167.644531 322.78125 166.9375 323.226562 166.269531 C 323.675781 165.597656 324.183594 164.976562 324.75 164.410156 C 325.320312 163.839844 325.941406 163.332031 326.609375 162.882812 C 327.277344 162.433594 327.984375 162.058594 328.730469 161.75 C 329.472656 161.441406 330.238281 161.207031 331.027344 161.050781 C 331.820312 160.894531 332.617188 160.816406 333.421875 160.816406 C 334.226562 160.816406 335.023438 160.894531 335.8125 161.050781 C 336.601562 161.207031 337.367188 161.441406 338.113281 161.75 C 338.855469 162.058594 339.5625 162.433594 340.234375 162.882812 C 340.902344 163.332031 341.519531 163.839844 342.089844 164.410156 C 342.660156 164.976562 343.167969 165.597656 343.613281 166.269531 C 344.0625 166.9375 344.441406 167.644531 344.75 168.390625 C 345.054688 169.132812 345.289062 169.902344 345.445312 170.691406 C 345.601562 171.480469 345.679688 172.277344 345.679688 173.085938 Z M 345.679688 173.085938 "/>
</g>
<g clip-path="url(#clip2)" clip-rule="nonzero">
<path style=" stroke:none;fill-rule:nonzero;fill:rgb(85.488892%,14.509583%,11.369324%);fill-opacity:1;" d="M 245.21875 22.015625 C 245.21875 22.820312 245.140625 23.617188 244.984375 24.410156 C 244.828125 25.199219 244.59375 25.964844 244.285156 26.710938 C 243.980469 27.453125 243.601562 28.160156 243.152344 28.832031 C 242.707031 29.5 242.199219 30.121094 241.628906 30.691406 C 241.058594 31.261719 240.441406 31.769531 239.769531 32.214844 C 239.101562 32.664062 238.394531 33.042969 237.652344 33.351562 C 236.90625 33.660156 236.140625 33.890625 235.351562 34.046875 C 234.5625 34.207031 233.765625 34.285156 232.960938 34.285156 C 232.15625 34.285156 231.355469 34.207031 230.566406 34.046875 C 229.777344 33.890625 229.011719 33.660156 228.269531 33.351562 C 227.523438 33.042969 226.816406 32.664062 226.148438 32.214844 C 225.480469 31.769531 224.859375 31.261719 224.289062 30.691406 C 223.722656 30.121094 223.210938 29.5 222.765625 28.832031 C 222.316406 28.160156 221.941406 27.453125 221.632812 26.710938 C 221.324219 25.964844 221.09375 25.199219 220.933594 24.410156 C 220.777344 23.617188 220.699219 22.820312 220.699219 22.015625 C 220.699219 21.210938 220.777344 20.410156 220.933594 19.621094 C 221.09375 18.832031 221.324219 18.0625 221.632812 17.320312 C 221.941406 16.574219 222.316406 15.867188 222.765625 15.199219 C 223.210938 14.527344 223.722656 13.910156 224.289062 13.339844 C 224.859375 12.769531 225.480469 12.261719 226.148438 11.8125 C 226.816406 11.367188 227.523438 10.988281 228.269531 10.679688 C 229.011719 10.371094 229.777344 10.136719 230.566406 9.980469 C 231.355469 9.824219 232.15625 9.746094 232.960938 9.746094 C 233.765625 9.746094 234.5625 9.824219 235.351562 9.980469 C 236.140625 10.136719 236.90625 10.371094 237.652344 10.679688 C 238.394531 10.988281 239.101562 11.367188 239.769531 11.8125 C 240.441406 12.261719 241.058594 12.769531 241.628906 13.339844 C 242.199219 13.910156 242.707031 14.527344 243.152344 15.199219 C 243.601562 15.867188 243.980469 16.574219 244.285156 17.320312 C 244.59375 18.0625 244.828125 18.832031 244.984375 19.621094 C 245.140625 20.410156 245.21875 21.210938 245.21875 22.015625 Z M 245.21875 22.015625 "/>
</g>
<g clip-path="url(#clip3)" clip-rule="nonzero">
<path style=" stroke:none;fill-rule:evenodd;fill:rgb(12.159729%,10.198975%,9.01947%);fill-opacity:1;" d="M 80.21875 365.1875 L 80.21875 332.992188 L 93.996094 332.992188 L 112.742188 355.199219 L 112.742188 333.195312 L 122.367188 333.195312 L 122.367188 365.1875 L 107.675781 365.1875 L 89.640625 344.097656 L 89.640625 365.1875 Z M 80.21875 365.1875 "/>
</g>
<g clip-path="url(#clip4)" clip-rule="nonzero">
<path style=" stroke:none;fill-rule:evenodd;fill:rgb(12.159729%,10.198975%,9.01947%);fill-opacity:1;" d="M 130.449219 332.738281 L 139.464844 332.738281 L 139.464844 365.1875 L 130.449219 365.1875 Z M 130.449219 332.738281 "/>
</g>
<g clip-path="url(#clip5)" clip-rule="nonzero">
<path style=" stroke:none;fill-rule:evenodd;fill:rgb(12.159729%,10.198975%,9.01947%);fill-opacity:1;" d="M 175.574219 353.359375 L 184.542969 353.359375 L 184.542969 357.667969 C 184.542969 362.128906 180.691406 365.628906 176.234375 365.171875 L 157.589844 365.171875 C 152.929688 365.171875 149.078125 361.675781 148.570312 357.0625 L 148.570312 340.835938 C 148.570312 336.019531 152.777344 332.21875 157.589844 332.726562 L 176.234375 332.726562 C 180.539062 332.726562 184.136719 335.96875 184.59375 340.230469 L 184.59375 344.589844 L 175.574219 344.589844 C 175.523438 342.410156 173.699219 340.734375 171.523438 340.835938 L 162.097656 340.835938 C 159.71875 340.734375 157.691406 342.5625 157.589844 344.894531 L 157.589844 353.003906 C 157.691406 355.386719 159.71875 357.164062 162.097656 357.0625 L 171.523438 357.0625 C 173.648438 357.164062 175.472656 355.539062 175.574219 353.359375 Z M 175.574219 353.359375 "/>
</g>
<g clip-path="url(#clip6)" clip-rule="nonzero">
<path style=" stroke:none;fill-rule:evenodd;fill:rgb(12.159729%,10.198975%,9.01947%);fill-opacity:1;" d="M 202.703125 360.078125 L 200.492188 365.246094 L 190.90625 365.246094 L 204.179688 333.140625 L 218.929688 333.140625 L 232.570312 365.246094 L 222.246094 365.246094 L 220.773438 360.078125 Z M 217.085938 352.332031 L 206.023438 352.332031 L 211.554688 338.675781 Z M 217.085938 352.332031 "/>
</g>
<g clip-path="url(#clip7)" clip-rule="nonzero">
<path style=" stroke:none;fill-rule:evenodd;fill:rgb(12.159729%,10.198975%,9.01947%);fill-opacity:1;" d="M 249.171875 346.640625 L 249.171875 365.042969 L 240.15625 365.042969 L 240.15625 332.59375 L 250.542969 332.59375 L 266.804688 357.894531 L 281.953125 332.59375 L 292.1875 332.59375 L 292.1875 365.042969 L 283.167969 365.042969 L 283.167969 347.652344 L 272.730469 365.042969 L 260.976562 365.042969 Z M 249.171875 346.640625 "/>
</g>
<g clip-path="url(#clip8)" clip-rule="nonzero">
<path style=" stroke:none;fill-rule:evenodd;fill:rgb(12.159729%,10.198975%,9.01947%);fill-opacity:1;" d="M 300.476562 365.1875 L 300.476562 332.34375 L 328.871094 332.34375 C 333.292969 332.34375 336.613281 336.035156 337.351562 340.464844 L 337.351562 349.320312 C 337.351562 353.746094 333.292969 357.808594 328.871094 357.808594 L 310.066406 357.808594 L 310.066406 365.1875 Z M 310.066406 348.949219 L 310.066406 340.832031 L 324.445312 340.832031 C 329.976562 340.832031 329.976562 348.949219 324.445312 348.949219 Z M 310.066406 348.949219 "/>
</g>
<path style=" stroke:none;fill-rule:evenodd;fill:rgb(12.159729%,10.198975%,9.01947%);fill-opacity:1;" d="M 40.730469 352.824219 L 40.730469 332.542969 L 31.714844 332.542969 L 31.714844 357.234375 C 31.714844 361.542969 35.210938 364.992188 39.464844 364.992188 L 64.746094 364.992188 C 69.050781 364.992188 72.496094 361.542969 72.496094 357.234375 L 72.496094 332.796875 L 63.480469 332.796875 L 63.480469 352.824219 C 63.480469 355.054688 61.65625 356.878906 59.425781 356.878906 L 44.785156 356.878906 C 42.554688 356.878906 40.730469 355.054688 40.730469 352.824219 Z M 40.730469 352.824219 "/>
<path style=" stroke:none;fill-rule:evenodd;fill:rgb(12.159729%,10.198975%,9.01947%);fill-opacity:1;" d="M 304.777344 114.925781 C 300.214844 104.128906 295.199219 93.53125 289.730469 83.136719 C 286.941406 78.21875 284.003906 73.402344 280.914062 68.6875 L 205.984375 143.671875 C 208.367188 146.5625 210.441406 149.65625 212.113281 152.949219 Z M 304.777344 114.925781 "/>
<path style=" stroke:none;fill-rule:evenodd;fill:rgb(12.159729%,10.198975%,9.01947%);fill-opacity:1;" d="M 308 122.453125 C 312.507812 134.164062 316.613281 146.078125 320.160156 158.144531 C 315.597656 161.035156 312.355469 165.699219 311.191406 171.023438 L 217.46875 171.023438 C 217.164062 167.421875 216.503906 163.875 215.390625 160.425781 Z M 308 122.453125 "/>
</g>
</svg>
