<?xml version="1.0" encoding="UTF-8" standalone="no"?>
<!-- Created with Inkscape (http://www.inkscape.org/) -->

<svg
   width="80.529984mm"
   height="80.87838mm"
   viewBox="0 0 80.529983 80.87838"
   version="1.1"
   id="svg5"
   inkscape:version="1.2 (dc2aedaf03, 2022-05-15)"
   sodipodi:docname="PAGE_ICON2.svg"
   xml:space="preserve"
   inkscape:export-filename="PAGE_ICON.png"
   inkscape:export-xdpi="96"
   inkscape:export-ydpi="96"
   xmlns:inkscape="http://www.inkscape.org/namespaces/inkscape"
   xmlns:sodipodi="http://sodipodi.sourceforge.net/DTD/sodipodi-0.dtd"
   xmlns="http://www.w3.org/2000/svg"
   xmlns:svg="http://www.w3.org/2000/svg"><sodipodi:namedview
     id="namedview7"
     pagecolor="#ffffff"
     bordercolor="#000000"
     borderopacity="0.25"
     inkscape:showpageshadow="2"
     inkscape:pageopacity="0.0"
     inkscape:pagecheckerboard="0"
     inkscape:deskcolor="#d1d1d1"
     inkscape:document-units="mm"
     showgrid="false"
     inkscape:zoom="0.46057099"
     inkscape:cx="69.478974"
     inkscape:cy="75.992628"
     inkscape:window-width="1366"
     inkscape:window-height="697"
     inkscape:window-x="-8"
     inkscape:window-y="-8"
     inkscape:window-maximized="1"
     inkscape:current-layer="layer1" /><defs
     id="defs2"><rect
       x="299.62808"
       y="406.01776"
       width="141.12917"
       height="243.17642"
       id="rect1628" /></defs><g
     inkscape:label="Camada 1"
     inkscape:groupmode="layer"
     id="layer1"
     transform="translate(-63.713543,-82.492557)"><path
       style="fill:#29b9fb;fill-opacity:1;stroke-width:2.17122"
       d="M 150.89965,331.97121 C 131.35118,327.94801 99.920827,312.52325 84.699206,299.48267 48.878689,268.79474 30.199668,228.66009 30.199668,182.38231 c 0,-59.63747 31.891408,-110.417755 85.960492,-136.873804 31.78856,-15.554168 62.66272,-19.648387 96.16793,-12.752821 46.92662,9.657772 86.38482,40.0377 106.91777,82.318865 10.82126,22.28299 15.31909,42.04518 15.31909,67.30776 0,59.64671 -31.88303,110.41364 -85.96049,136.8738 -31.54724,15.4361 -63.97717,19.65644 -97.70481,12.7151 z m 23.63952,-73.05347 c 7.74733,-40.94007 13.64927,-56.68321 28.58116,-76.23892 10.29962,-13.48899 11.9227,-11.69595 2.32412,2.56748 -7.769,11.5447 -15.43546,31.94897 -17.82207,47.43344 l -1.39398,9.04429 13.81828,-1.08883 c 20.19662,-1.5914 33.90191,-6.63936 44.46744,-16.37832 13.53694,-12.47792 20.88334,-25.43613 32.10556,-56.63046 5.49727,-15.28076 11.946,-31.60739 14.3305,-36.2814 2.38451,-4.67402 4.33546,-9.16533 4.33546,-9.9807 0,-2.22821 -40.19363,1.00038 -57.53727,4.62173 -32.68352,6.8243 -56.6374,24.92928 -66.14275,49.99242 -4.31084,11.36657 -4.76507,15.65468 -3.78328,35.71528 0.6961,14.22327 0.0687,28.30998 -1.66819,37.45351 l -2.78394,14.65572 h 5.12225 c 3.59056,0 5.39868,-1.46082 6.04671,-4.88524 z m -17.85748,-48.3096 c -0.40238,-3.58251 -3.55917,-13.29018 -7.01509,-21.57261 -3.45592,-8.28243 -5.89971,-15.44273 -5.43066,-15.91178 0.46906,-0.46906 3.47443,3.62059 6.6786,9.0881 3.20418,5.46752 6.50892,9.94094 7.34386,9.94094 2.04643,0 8.92538,-22.69451 8.92538,-29.44594 0,-12.17551 -23.89285,-30.47838 -48.13504,-36.87335 -14.53247,-3.83359 -50.391096,-6.6015 -49.308589,-3.8061 26.939428,69.56676 26.626622,68.89521 36.899369,79.21777 11.43684,11.4923 25.34265,17.0265 41.0033,16.3184 9.49098,-0.42914 9.74955,-0.62811 9.03887,-6.95543 z"
       id="path1949"
       transform="matrix(0.26458333,0,0,0.26458333,55.723214,74.680713)" /></g></svg>
